<svg width="500" height="691" viewBox="0 0 500 691" fill="none" xmlns="http://www.w3.org/2000/svg">
<g clip-path="url(#clip0_13_4472)">
<path d="M235.967 0C323.976 0 411.991 0 500 0C499.955 1.49007 499.879 2.97374 499.879 4.46381C499.879 148.738 499.879 293.006 499.866 437.28C499.866 452.302 498.793 467.242 496.226 482.065C487.369 533.233 464.961 577.602 428.728 614.611C386.359 657.887 334.825 682.694 274.518 688.903C248.752 691.557 223.106 690.425 197.882 684.657C121.847 667.262 65.2563 623.929 28.3209 555.162C13.7997 528.136 5.22357 499.083 1.90296 468.54C1.15583 461.684 0.625806 454.803 0 447.935C0 379.347 0 310.765 0 242.177C0.204345 240.502 0.389532 238.82 0.613035 237.144C2.38828 223.568 3.10987 209.741 6.13035 196.446C21.2583 129.757 57.638 77.5027 114.637 39.9376C146.419 18.9936 181.452 6.47827 219.256 1.89296C224.818 1.21508 230.399 0.626723 235.967 0ZM430.497 441.488C431.608 340.17 349.43 261.638 253.962 259.95C150.589 258.121 73.0533 339.703 69.3942 432.919C64.9944 544.923 154.319 619.618 242.845 622.726C347.322 626.397 432.241 541.719 430.497 441.495V441.488Z" fill="#EEF0E5"/>
<path d="M430.497 441.487C432.241 541.712 347.316 626.39 242.845 622.719C154.312 619.611 64.9944 544.922 69.3942 432.912C73.0533 339.696 150.589 258.113 253.962 259.942C349.43 261.631 431.608 340.163 430.497 441.481V441.487ZM250.214 296.887C237.992 296.465 226.018 298.192 214.313 301.223C195.845 306.006 178.898 314.167 163.68 325.787C141.905 342.414 125.736 363.358 115.691 388.894C107.396 409.979 104.433 431.863 106.432 454.476C108.424 477.012 115.448 497.861 127.332 516.988C144.421 544.494 168.023 564.479 198.24 576.067C207.761 579.718 217.978 581.554 227.896 584.144C230.265 584.764 231.414 583.741 231.44 581.151C231.472 577.979 231.899 574.807 232.027 571.635C232.691 555.404 233.292 539.173 233.956 522.949C234.332 513.721 234.933 504.505 235.124 495.277C235.188 492.29 235.029 488.888 233.694 486.343C223.668 467.266 208.496 453.478 189.223 444.109C174.447 436.928 158.77 433.135 142.454 431.863C140.711 431.728 139.714 431.083 139.829 429.087C139.963 426.753 139.944 424.4 139.842 422.059C139.753 420.038 140.474 419.117 142.582 419.188C150.858 419.443 159.165 419.207 167.403 419.904C192.033 422.001 214.485 430.181 234.409 445.024C235.003 445.465 235.846 445.561 236.574 445.823C236.829 445.056 237.276 444.295 237.308 443.515C237.506 438.527 237.583 433.532 237.762 428.544C238.011 421.643 238.285 414.749 238.598 407.855C239.364 390.902 240.195 373.948 240.935 356.995C241.242 349.992 241.408 342.983 241.587 335.98C241.631 334.26 242.327 333.461 244.09 333.486C248.017 333.538 251.951 333.538 255.878 333.486C257.634 333.461 258.337 334.247 258.394 335.974C258.72 345.305 259.077 354.635 259.473 363.966C259.869 373.398 260.374 382.831 260.744 392.264C261.408 409.134 262.002 426.005 262.666 442.875C262.704 443.866 263.145 444.845 263.394 445.83C264.295 445.452 265.31 445.235 266.07 444.672C276.657 436.864 288.133 430.737 300.598 426.568C316.843 421.132 333.542 418.734 350.688 419.175C360.49 419.431 360.439 419.22 360.164 429.094C360.107 431.063 359.27 431.639 357.54 431.895C350.841 432.886 344.091 433.685 337.476 435.08C311.53 440.535 289.767 453.063 273.701 474.48C268.624 481.24 263.835 487.942 264.946 497.816C266.606 512.653 266.485 527.694 267.098 542.652C267.602 554.956 268.266 567.261 268.496 579.571C268.605 585.34 270.061 584.655 273.982 583.977C289.225 581.349 303.791 576.521 317.367 569.07C349.213 551.586 371.92 525.986 384.96 491.92C394.826 466.147 396.736 439.626 391.34 412.716C386.11 386.643 374.43 363.563 356.326 344.077C327.705 313.271 292.303 297.392 250.208 296.925L250.214 296.887Z" fill="#132013"/>
<path d="M250.214 296.888C292.315 297.355 327.712 313.234 356.333 344.04C374.436 363.526 386.116 386.606 391.346 412.679C396.742 439.596 394.833 466.11 384.967 491.883C371.927 525.943 349.219 551.549 317.373 569.033C303.797 576.484 289.237 581.312 273.988 583.941C270.067 584.618 268.611 585.303 268.503 579.534C268.273 567.224 267.615 554.919 267.104 542.615C266.491 527.657 266.613 512.622 264.952 497.779C263.848 487.905 268.637 481.203 273.707 474.443C289.78 453.026 311.537 440.498 337.482 435.043C344.104 433.648 350.847 432.849 357.546 431.858C359.277 431.602 360.12 431.026 360.171 429.057C360.445 419.183 360.496 419.387 350.694 419.138C333.548 418.697 316.85 421.095 300.604 426.531C288.145 430.7 276.664 436.827 266.076 444.635C265.316 445.198 264.301 445.416 263.401 445.793C263.145 444.808 262.711 443.83 262.673 442.838C262.008 425.968 261.415 409.098 260.75 392.227C260.38 382.794 259.876 373.362 259.48 363.929C259.084 354.598 258.726 345.268 258.401 335.937C258.343 334.21 257.641 333.43 255.885 333.449C251.957 333.501 248.024 333.501 244.096 333.449C242.334 333.43 241.638 334.223 241.593 335.944C241.414 342.953 241.248 349.955 240.942 356.958C240.201 373.911 239.377 390.865 238.605 407.819C238.292 414.712 238.017 421.613 237.768 428.507C237.589 433.495 237.513 438.49 237.315 443.478C237.283 444.258 236.836 445.019 236.58 445.786C235.852 445.531 235.009 445.428 234.416 444.987C214.492 430.144 192.04 421.958 167.41 419.867C159.178 419.163 150.864 419.4 142.588 419.151C140.481 419.087 139.753 420.001 139.849 422.022C139.951 424.363 139.97 426.71 139.836 429.05C139.721 431.039 140.717 431.685 142.46 431.826C158.782 433.105 174.453 436.891 189.23 444.073C208.502 453.441 223.681 467.229 233.7 486.306C235.035 488.845 235.195 492.247 235.131 495.24C234.939 504.468 234.339 513.69 233.962 522.912C233.298 539.143 232.691 555.373 232.034 571.598C231.906 574.776 231.478 577.942 231.446 581.114C231.421 583.704 230.271 584.727 227.902 584.107C217.985 581.517 207.768 579.681 198.246 576.03C168.029 564.442 144.421 544.457 127.339 516.951C115.455 497.824 108.431 476.976 106.438 454.439C104.439 431.832 107.402 409.942 115.698 388.857C125.742 363.328 141.911 342.377 163.687 325.75C178.904 314.13 195.858 305.976 214.319 301.186C226.025 298.155 237.998 296.428 250.22 296.85L250.214 296.888ZM227.046 413.574C226.74 394.184 218.879 378.727 202.851 367.644C196.363 363.161 189.045 360.699 181.375 359.241C179.108 358.813 176.835 358.672 177.058 362.272C177.295 366.052 176.886 369.895 177.352 373.637C180.475 398.955 198.828 416.944 222.813 421.216C226.229 421.824 227.002 421.108 227.046 417.725C227.065 416.343 227.046 414.962 227.046 413.574ZM272.96 413.625C272.96 414.796 272.941 415.966 272.96 417.136C273.037 421.331 273.803 421.913 277.864 421.082C294.295 417.718 307.264 409.353 315.713 394.587C321.383 384.668 324.04 373.988 322.929 362.541C322.59 359.017 321.786 358.634 318.261 359.273C291.441 364.153 272.813 386.446 272.954 413.625H272.96ZM155.787 514.502C160.717 513.85 165.724 513.556 170.564 512.475C191.331 507.832 208.036 491.684 212.327 468.169C212.653 466.404 211.797 465.963 210.29 465.752C200.954 464.479 191.759 465.451 183.099 468.879C166.094 475.601 154.587 487.815 149.721 505.613C147.339 514.317 146.139 513.76 155.794 514.496L155.787 514.502ZM344.219 514.048C345.177 514.048 346.135 514.086 347.086 514.035C348.038 513.991 348.989 513.843 349.941 513.773C351.595 513.652 352.016 512.923 351.697 511.228C349.321 498.732 343.817 487.956 334.238 479.482C321.505 468.214 306.575 463.917 289.774 465.758C288.286 465.925 287.2 466.36 287.692 468.112C288.867 472.288 289.697 476.624 291.402 480.576C300.604 502 320.368 514.413 344.219 514.048ZM154.759 473.151C164.823 473.311 169.555 466.763 169.542 459.658C169.53 451.868 164.274 445.927 154.893 445.94C146.375 445.953 140.519 451.485 140.5 459.536C140.487 467.722 146.151 473.138 154.753 473.151H154.759ZM344.947 473.119C353.114 473.292 359.302 468.054 359.507 460.796C359.749 452.009 354.347 446.17 345.739 445.959C336.294 445.729 330.975 451.024 330.464 459.037C330.03 465.816 334.64 473.292 344.947 473.119ZM216.835 334.204C207.123 333.386 202.193 340.158 201.886 347.384C201.561 355.02 207.946 360.961 216.325 361.07C224.939 361.179 230.923 355.769 231.21 347.909C231.446 341.392 226.216 333.213 216.835 334.21V334.204ZM283.292 334.204C273.656 333.194 268.611 341.475 268.797 347.781C269.026 355.666 274.978 361.14 283.56 361.07C291.971 361.006 298.344 355.18 298.12 347.506C297.909 340.273 292.941 333.411 283.299 334.204H283.292ZM155.111 407.62C164.364 407.563 169.657 402.543 169.625 393.852C169.594 386.094 163.418 380.626 154.791 380.722C146.375 380.812 140.411 386.555 140.5 394.478C140.596 402.453 146.4 407.678 155.111 407.627V407.62ZM344.787 407.62C353.683 407.678 359.481 402.415 359.507 394.267C359.532 386.408 353.446 380.722 345.011 380.716C336.55 380.716 330.419 386.165 330.381 393.73C330.336 402.504 335.579 407.556 344.781 407.614L344.787 407.62ZM213.247 503.023C204.396 503.042 198.63 508.452 198.706 516.677C198.777 524.575 204.786 530.145 213.272 530.177C221.874 530.209 227.717 524.6 227.698 516.325C227.685 508.152 222.091 503.004 213.247 503.023ZM286.919 503.023C278.037 502.978 272.353 508.101 272.322 516.178C272.29 524.523 277.973 530.1 286.6 530.177C295.189 530.247 301.351 524.53 301.313 516.517C301.281 508.395 295.598 503.068 286.919 503.023Z" fill="#EEF0E5"/>
<path d="M227.04 413.574C227.04 414.955 227.053 416.337 227.04 417.725C226.995 421.108 226.223 421.824 222.806 421.216C198.815 416.944 180.468 398.955 177.346 373.636C176.886 369.895 177.295 366.052 177.052 362.272C176.822 358.665 179.096 358.812 181.369 359.241C189.038 360.693 196.363 363.155 202.844 367.644C218.873 378.727 226.733 394.184 227.04 413.574Z" fill="#132013"/>
<path d="M272.96 413.625C272.82 386.446 291.447 364.146 318.267 359.273C321.792 358.634 322.597 359.011 322.935 362.541C324.046 373.995 321.39 384.668 315.719 394.587C307.271 409.354 294.308 417.718 277.871 421.082C273.809 421.914 273.043 421.338 272.966 417.136C272.947 415.966 272.966 414.796 272.966 413.625H272.96Z" fill="#132013"/>
<path d="M155.787 514.501C146.126 513.766 147.333 514.322 149.715 505.618C154.581 487.82 166.088 475.606 183.093 468.884C191.752 465.463 200.948 464.491 210.284 465.757C211.797 465.962 212.646 466.403 212.321 468.175C208.023 491.689 191.324 507.831 170.558 512.48C165.724 513.561 160.711 513.855 155.781 514.507L155.787 514.501Z" fill="#132013"/>
<path d="M344.219 514.047C320.362 514.412 300.604 501.992 291.402 480.575C289.704 476.616 288.867 472.287 287.692 468.111C287.2 466.358 288.286 465.924 289.774 465.757C306.575 463.916 321.505 468.213 334.238 479.481C343.817 487.955 349.315 498.731 351.697 511.227C352.016 512.922 351.595 513.651 349.941 513.772C348.989 513.842 348.044 513.989 347.086 514.034C346.135 514.079 345.177 514.047 344.219 514.047Z" fill="#132013"/>
<path d="M154.753 473.151C146.151 473.138 140.481 467.728 140.5 459.536C140.513 451.484 146.368 445.952 154.893 445.939C164.281 445.927 169.53 451.868 169.542 459.657C169.555 466.762 164.823 473.311 154.759 473.151H154.753Z" fill="#132013"/>
<path d="M344.947 473.119C334.64 473.291 330.03 465.815 330.464 459.036C330.975 451.017 336.294 445.728 345.739 445.958C354.353 446.169 359.756 452.015 359.507 460.795C359.302 468.054 353.114 473.291 344.947 473.119Z" fill="#132013"/>
<path d="M216.829 334.21C226.21 333.212 231.44 341.392 231.203 347.909C230.922 355.768 224.933 361.178 216.318 361.07C207.94 360.967 201.554 355.02 201.88 347.384C202.186 340.158 207.11 333.385 216.829 334.204V334.21Z" fill="#132013"/>
<path d="M283.292 334.204C292.935 333.411 297.897 340.273 298.114 347.506C298.344 355.18 291.964 361.006 283.554 361.07C274.972 361.141 269.02 355.666 268.79 347.781C268.605 341.476 273.656 333.188 283.286 334.204H283.292Z" fill="#132013"/>
<path d="M155.104 407.62C146.394 407.672 140.589 402.453 140.493 394.472C140.398 386.548 146.362 380.812 154.785 380.716C163.412 380.62 169.587 386.088 169.619 393.845C169.651 402.536 164.357 407.563 155.104 407.614V407.62Z" fill="#132013"/>
<path d="M344.781 407.621C335.573 407.563 330.33 402.511 330.381 393.737C330.419 386.165 336.55 380.716 345.011 380.723C353.446 380.723 359.526 386.414 359.507 394.274C359.481 402.415 353.683 407.678 344.787 407.627L344.781 407.621Z" fill="#132013"/>
<path d="M213.24 503.022C222.085 503.002 227.679 508.15 227.691 516.323C227.704 524.599 221.867 530.207 213.266 530.175C204.779 530.143 198.776 524.58 198.7 516.675C198.623 508.445 204.39 503.034 213.24 503.022Z" fill="#132013"/>
<path d="M286.913 503.016C295.591 503.061 301.268 508.388 301.306 516.51C301.338 524.523 295.176 530.247 286.594 530.17C277.966 530.099 272.283 524.523 272.315 516.171C272.347 508.087 278.03 502.965 286.913 503.016Z" fill="#132013"/>
</g>
<defs>
<clipPath id="clip0_13_4472">
<rect width="500" height="690.266" fill="white"/>
</clipPath>
</defs>
</svg>
