<svg width="1014" height="1014" viewBox="0 0 1014 1014" fill="none" xmlns="http://www.w3.org/2000/svg">
<circle cx="507" cy="507" r="507" fill="white"/>
<path d="M151 596H863.5L725.805 733.5H574.5V884.59L511 948H502L438.77 884.59V733.5H288.109L151 596Z" fill="black" stroke="black"/>
<path d="M404.5 288L571.69 118.814L506.5 54L162 398.5H377L488.5 288H404.5Z" fill="black"/>
<path d="M426.5 398.5L639 185.735L678 224.51L714.199 260.5L706.245 268.5H634.513L611.282 292H682.882L640.5 334.629H569.14L547.025 357H618.259L577 398.5H506H426.5Z" fill="black"/>
<path d="M692.5 330.812C688.357 337.391 686 344.954 686 353C686 370.701 697.411 388.98 714.139 398.438L625 398.5C625 398.5 696.643 324.233 692.5 330.812Z" fill="black"/>
<path d="M738.5 307C726.816 307 716.023 310.344 707.301 316L738.5 284.661L770.695 316.662C761.804 310.606 750.633 307 738.5 307Z" fill="black"/>
<path d="M791 353C791 344.472 788.351 336.486 783.736 329.639L853 398.5L762.861 398.438C779.589 388.98 791 370.701 791 353Z" fill="black"/>
<path fill-rule="evenodd" clip-rule="evenodd" d="M169.849 548V446.182H210.02C217.742 446.182 224.321 447.657 229.757 450.607C235.193 453.523 239.336 457.583 242.186 462.787C245.07 467.957 246.511 473.923 246.511 480.685C246.511 487.446 245.053 493.412 242.136 498.582C239.22 503.753 234.994 507.78 229.459 510.663C223.957 513.547 217.295 514.989 209.473 514.989H191.376V548H169.849ZM216.234 495.599C213.55 497.025 210.136 497.737 205.993 497.737H191.376V463.781H205.893C210.07 463.781 213.517 464.494 216.234 465.919C218.952 467.311 220.974 469.283 222.3 471.835C223.659 474.354 224.338 477.304 224.338 480.685C224.338 484.032 223.659 486.999 222.3 489.584C220.974 492.136 218.952 494.141 216.234 495.599Z" fill="white"/>
<path fill-rule="evenodd" clip-rule="evenodd" d="M281.494 548V446.182H321.664C329.354 446.182 335.916 447.557 341.352 450.308C346.821 453.026 350.98 456.887 353.831 461.892C356.714 466.864 358.156 472.714 358.156 479.442C358.156 486.203 356.698 492.02 353.781 496.892C350.864 501.731 346.638 505.443 341.103 508.028C340.8 508.171 340.493 508.31 340.182 508.444L361.785 548H338.021L318.735 511.906H303.021V548H281.494ZM327.879 492.915C325.161 494.042 321.747 494.605 317.637 494.605H303.021V463.781H317.538C321.681 463.781 325.111 464.394 327.829 465.621C330.58 466.814 332.618 468.571 333.944 470.891C335.303 473.211 335.983 476.061 335.983 479.442C335.983 482.789 335.303 485.59 333.944 487.844C332.618 490.098 330.597 491.788 327.879 492.915Z" fill="white"/>
<path d="M388.85 548L424 446.182H451.741L486.841 548H388.85Z" fill="white"/>
<path d="M605.259 446.182V548H586.665L542.368 483.916H541.623V548H520.096V446.182H538.988L582.936 510.216H583.831V446.182H605.259Z" fill="white"/>
<path d="M708.626 472.68C709.885 474.536 710.863 476.674 711.559 479.094H733.434C732.738 474.056 731.164 469.449 728.711 465.273C726.258 461.063 723.093 457.434 719.215 454.385C715.371 451.336 710.962 448.982 705.991 447.325C701.019 445.635 695.65 444.79 689.883 444.79C683.155 444.79 676.907 445.966 671.14 448.32C665.373 450.673 660.318 454.103 655.977 458.611C651.635 463.118 648.254 468.62 645.835 475.116C643.448 481.58 642.255 488.937 642.255 497.19C642.255 507.929 644.26 517.209 648.271 525.031C652.314 532.82 657.949 538.836 665.174 543.078C672.399 547.287 680.785 549.392 690.33 549.392C698.881 549.392 706.471 547.669 713.1 544.222C719.729 540.741 724.933 535.803 728.711 529.406C732.489 522.976 734.379 515.287 734.379 506.338V493.511H691.772V509.719H713.64C713.645 509.505 713.647 509.289 713.647 509.072L718.022 509.719H713.64C713.552 513.789 712.626 517.335 710.863 520.358C709.04 523.54 706.389 526.009 702.908 527.766C699.461 529.489 695.302 530.351 690.43 530.351C685.06 530.351 680.404 529.058 676.46 526.473C672.515 523.855 669.466 520.06 667.312 515.088C665.157 510.116 664.08 504.084 664.08 496.991C664.08 489.899 665.174 483.9 667.362 478.994C669.549 474.056 672.598 470.294 676.509 467.709C680.453 465.124 685.027 463.831 690.231 463.831C693.015 463.831 695.55 464.179 697.837 464.875C700.157 465.571 702.212 466.582 704.002 467.908C705.825 469.2 707.366 470.791 708.626 472.68Z" fill="white"/>
<path fill-rule="evenodd" clip-rule="evenodd" d="M864.5 419H150V575.5H864.5V419ZM169.849 548V446.182H210.02C217.742 446.182 224.321 447.657 229.757 450.607C235.193 453.523 239.336 457.583 242.186 462.787C245.07 467.957 246.511 473.923 246.511 480.685C246.511 487.446 245.053 493.412 242.136 498.582C239.22 503.753 234.994 507.78 229.459 510.663C223.957 513.547 217.295 514.989 209.473 514.989H191.376V548H169.849ZM216.234 495.599C213.55 497.025 210.136 497.737 205.993 497.737H191.376V463.781H205.893C210.07 463.781 213.517 464.494 216.234 465.919C218.952 467.311 220.974 469.283 222.3 471.835C223.659 474.354 224.338 477.304 224.338 480.685C224.338 484.032 223.659 486.999 222.3 489.584C220.974 492.136 218.952 494.141 216.234 495.599ZM281.494 446.182V548H303.021V511.906H318.735L338.021 548H361.785L340.182 508.444C340.493 508.31 340.8 508.171 341.103 508.028C346.638 505.443 350.864 501.731 353.781 496.892C356.698 492.02 358.156 486.203 358.156 479.442C358.156 472.714 356.714 466.864 353.831 461.892C350.98 456.887 346.821 453.026 341.352 450.308C335.916 447.557 329.354 446.182 321.664 446.182H281.494ZM317.637 494.605C321.747 494.605 325.161 494.042 327.879 492.915C330.597 491.788 332.618 490.098 333.944 487.844C335.303 485.59 335.983 482.789 335.983 479.442C335.983 476.061 335.303 473.211 333.944 470.891C332.618 468.571 330.58 466.814 327.829 465.621C325.111 464.394 321.681 463.781 317.538 463.781H303.021V494.605H317.637ZM388.85 548L424 446.182H451.741L486.841 548H388.85ZM605.259 548V446.182H583.831V510.216H582.936L538.988 446.182H520.096V548H541.623V483.916H542.368L586.665 548H605.259ZM708.626 472.68C709.885 474.536 710.863 476.674 711.559 479.094H733.434C732.738 474.056 731.164 469.449 728.711 465.273C726.258 461.063 723.093 457.434 719.215 454.385C715.371 451.336 710.962 448.982 705.991 447.325C701.019 445.635 695.65 444.79 689.883 444.79C683.155 444.79 676.907 445.966 671.14 448.32C665.373 450.673 660.318 454.103 655.977 458.611C651.635 463.118 648.254 468.62 645.835 475.116C643.448 481.58 642.255 488.937 642.255 497.19C642.255 507.929 644.26 517.209 648.271 525.031C652.314 532.82 657.949 538.836 665.174 543.078C672.399 547.287 680.785 549.392 690.33 549.392C698.881 549.392 706.471 547.669 713.1 544.222C719.729 540.741 724.933 535.803 728.711 529.406C732.489 522.976 734.379 515.287 734.379 506.338V493.511H691.772V509.719H713.64C713.552 513.789 712.626 517.335 710.863 520.358C709.04 523.54 706.389 526.009 702.908 527.766C699.461 529.489 695.302 530.351 690.43 530.351C685.06 530.351 680.404 529.058 676.46 526.473C672.515 523.855 669.466 520.06 667.312 515.088C665.157 510.116 664.08 504.084 664.08 496.991C664.08 489.899 665.174 483.9 667.362 478.994C669.549 474.056 672.598 470.294 676.509 467.709C680.453 465.124 685.027 463.831 690.231 463.831C693.015 463.831 695.55 464.179 697.837 464.875C700.157 465.571 702.212 466.582 704.002 467.908C705.825 469.2 707.366 470.791 708.626 472.68ZM713.64 509.719C713.645 509.505 713.647 509.289 713.647 509.072L718.022 509.719H713.64ZM821.662 466.118C824.678 468.339 826.385 471.454 826.783 475.464H847.415C847.316 469.399 845.692 464.063 842.543 459.456C839.394 454.849 834.986 451.253 829.319 448.668C823.684 446.082 817.088 444.79 809.532 444.79C802.107 444.79 795.479 446.082 789.645 448.668C783.812 451.253 779.222 454.849 775.874 459.456C772.56 464.063 770.919 469.449 770.952 475.614C770.919 483.137 773.388 489.12 778.36 493.561C783.331 498.002 790.109 501.267 798.694 503.355L809.78 506.139C813.492 507.034 816.624 508.028 819.177 509.122C821.762 510.216 823.717 511.542 825.043 513.099C826.402 514.657 827.081 516.58 827.081 518.866C827.081 521.319 826.336 523.49 824.844 525.379C823.353 527.268 821.248 528.743 818.53 529.804C815.846 530.865 812.68 531.395 809.034 531.395C805.322 531.395 801.991 530.831 799.042 529.705C796.125 528.545 793.788 526.838 792.032 524.584C790.308 522.297 789.33 519.446 789.098 516.033H768.267C768.433 523.357 770.206 529.506 773.587 534.477C777.001 539.416 781.74 543.144 787.806 545.663C793.904 548.182 801.063 549.442 809.283 549.442C817.569 549.442 824.645 548.199 830.512 545.713C836.411 543.194 840.919 539.664 844.034 535.124C847.183 530.55 848.774 525.147 848.807 518.916C848.774 514.674 847.995 510.912 846.471 507.631C844.979 504.349 842.874 501.499 840.157 499.08C837.439 496.66 834.224 494.622 830.512 492.964C826.8 491.307 822.723 489.982 818.282 488.987L809.134 486.8C806.913 486.303 804.825 485.706 802.87 485.01C800.914 484.281 799.191 483.436 797.699 482.474C796.208 481.48 795.031 480.304 794.169 478.945C793.341 477.586 792.96 475.995 793.026 474.172C793.026 471.984 793.656 470.029 794.915 468.305C796.208 466.582 798.064 465.24 800.483 464.278C802.903 463.284 805.869 462.787 809.382 462.787C814.553 462.787 818.646 463.897 821.662 466.118Z" fill="black"/>
<path d="M826.783 475.464C826.385 471.454 824.678 468.339 821.662 466.118C818.646 463.897 814.553 462.787 809.382 462.787C805.869 462.787 802.903 463.284 800.483 464.278C798.064 465.24 796.208 466.582 794.915 468.305C793.656 470.029 793.026 471.984 793.026 474.172C792.96 475.995 793.341 477.586 794.169 478.945C795.031 480.304 796.208 481.48 797.699 482.474C799.191 483.436 800.914 484.281 802.87 485.01C804.825 485.706 806.913 486.303 809.134 486.8L818.282 488.987C822.723 489.982 826.8 491.307 830.512 492.964C834.224 494.622 837.439 496.66 840.157 499.08C842.874 501.499 844.979 504.349 846.471 507.631C847.995 510.912 848.774 514.674 848.807 518.916C848.774 525.147 847.183 530.55 844.034 535.124C840.919 539.664 836.411 543.194 830.512 545.713C824.645 548.199 817.569 549.442 809.283 549.442C801.063 549.442 793.904 548.182 787.806 545.663C781.74 543.144 777.001 539.416 773.587 534.477C770.206 529.506 768.433 523.357 768.267 516.033H789.098C789.33 519.446 790.308 522.297 792.032 524.584C793.788 526.838 796.125 528.545 799.042 529.705C801.991 530.831 805.322 531.395 809.034 531.395C812.68 531.395 815.846 530.865 818.53 529.804C821.248 528.743 823.353 527.268 824.844 525.379C826.336 523.49 827.081 521.319 827.081 518.866C827.081 516.58 826.402 514.657 825.043 513.099C823.717 511.542 821.762 510.216 819.177 509.122C816.624 508.028 813.492 507.034 809.78 506.139L798.694 503.355C790.109 501.267 783.331 498.002 778.36 493.561C773.388 489.12 770.919 483.137 770.952 475.614C770.919 469.449 772.56 464.063 775.874 459.456C779.222 454.849 783.812 451.253 789.645 448.668C795.479 446.082 802.107 444.79 809.532 444.79C817.088 444.79 823.684 446.082 829.319 448.668C834.986 451.253 839.394 454.849 842.543 459.456C845.692 464.063 847.316 469.399 847.415 475.464H826.783Z" fill="white"/>
</svg>
